<svg width="18" height="19" viewBox="0 0 18 19" fill="none" xmlns="http://www.w3.org/2000/svg">
<path fill-rule="evenodd" clip-rule="evenodd" d="M5.71213 7.70318H2.68732C2.24349 7.69953 1.81637 7.87234 1.49994 8.18357C1.18349 8.49479 1.00366 8.91897 1 9.36277V15.6438C1.00821 16.5677 1.7635 17.3101 2.68732 17.3024H5.71213C6.15593 17.3061 6.58309 17.1333 6.89954 16.8221C7.216 16.5108 7.39582 16.0867 7.39945 15.6428V9.36277C7.39582 8.91897 7.216 8.49479 6.89954 8.18357C6.58309 7.87234 6.15593 7.69953 5.71213 7.70318Z" stroke="#2B3A4A" stroke-width="0.9" stroke-linecap="round" stroke-linejoin="round"/>
<path fill-rule="evenodd" clip-rule="evenodd" d="M5.71213 1.30338H2.68732C1.78208 1.27827 1.02729 1.99059 1 2.89577V3.97728C1.02729 4.88247 1.78208 5.59479 2.68732 5.56968H5.71213C6.61733 5.59479 7.37214 4.88247 7.39945 3.97728V2.89577C7.37214 1.99059 6.61733 1.27827 5.71213 1.30338Z" stroke="#2B3A4A" stroke-width="0.9" stroke-linecap="round" stroke-linejoin="round"/>
<path fill-rule="evenodd" clip-rule="evenodd" d="M11.2205 10.902H14.2443C14.6883 10.906 15.1157 10.7333 15.4323 10.422C15.749 10.1107 15.929 9.68643 15.9327 9.24242V2.96238C15.929 2.51856 15.7492 2.09436 15.4327 1.78312C15.1163 1.47189 14.6891 1.2991 14.2453 1.30279H11.2205C10.7767 1.2991 10.3496 1.47189 10.0331 1.78312C9.71665 2.09436 9.53683 2.51856 9.5332 2.96238V9.24242C9.53683 9.68622 9.71665 10.1104 10.0331 10.4216C10.3496 10.7328 10.7767 10.9056 11.2205 10.902Z" stroke="#2B3A4A" stroke-width="0.9" stroke-linecap="round" stroke-linejoin="round"/>
<path fill-rule="evenodd" clip-rule="evenodd" d="M11.2205 17.3021H14.2443C15.1499 17.3278 15.9053 16.6153 15.9327 15.7097V14.6282C15.9053 13.723 15.1505 13.0107 14.2453 13.0358H11.2205C10.3153 13.0107 9.56051 13.723 9.5332 14.6282V15.7086C9.55987 16.6143 10.3149 17.3272 11.2205 17.3021Z" stroke="#2B3A4A" stroke-width="0.9" stroke-linecap="round" stroke-linejoin="round"/>
</svg>
