<?xml version="1.0" standalone="no"?>
<!DOCTYPE svg PUBLIC "-//W3C//DTD SVG 20010904//EN"
 "http://www.w3.org/TR/2001/REC-SVG-20010904/DTD/svg10.dtd">
<svg version="1.0" xmlns="http://www.w3.org/2000/svg"
 width="128.000000pt" height="128.000000pt" viewBox="0 0 128.000000 128.000000"
 preserveAspectRatio="xMidYMid meet">

<g transform="translate(0.000000,128.000000) scale(0.100000,-0.100000)"
fill="#000000" stroke="none">
<path d="M575 1240 c-136 -38 -163 -53 -166 -89 -2 -24 -2 -24 5 -52 6 -26 4
-26 -102 -54 -59 -15 -113 -34 -121 -41 -12 -11 -12 -22 -2 -67 14 -64 35 -97
62 -97 10 0 19 -3 19 -7 0 -5 11 -172 25 -373 14 -201 25 -373 25 -383 0 -10
13 -32 29 -48 l29 -29 286 0 c161 0 296 4 310 10 47 18 54 53 76 405 11 182
23 358 26 393 l6 62 -338 0 c-186 0 -334 4 -328 8 5 5 151 46 324 92 173 45
326 89 339 97 25 16 25 25 1 115 -16 58 -32 61 -151 28 -57 -16 -107 -30 -111
-30 -3 0 -9 13 -13 30 -7 32 -48 71 -74 69 -9 0 -79 -18 -156 -39z m183 2 c7
-5 16 -22 21 -39 l9 -31 -157 -41 c-86 -23 -163 -44 -172 -47 -22 -6 -37 63
-17 82 13 13 246 82 283 83 11 0 26 -3 33 -7z m298 -72 c7 -19 13 -47 13 -61
1 -24 -4 -27 -86 -49 -49 -13 -227 -60 -398 -106 -171 -46 -320 -84 -332 -84
-17 0 -23 9 -33 50 -6 27 -10 55 -8 61 4 12 791 229 817 226 8 -1 20 -18 27
-37z m-6 -357 c0 -21 -11 -197 -25 -392 -20 -297 -27 -356 -41 -372 -16 -18
-35 -19 -310 -19 -323 0 -318 -1 -328 63 -7 43 -46 649 -46 710 l0 47 375 0
375 0 0 -37z"/>
<path d="M380 760 c-11 -11 -20 -24 -20 -29 0 -54 73 -607 81 -617 14 -17 71
-18 87 -2 18 18 15 66 -18 343 -16 138 -30 258 -30 268 0 23 -35 57 -60 57
-11 0 -29 -9 -40 -20z m66 -21 c3 -6 22 -141 40 -301 26 -219 31 -294 23 -304
-14 -17 -33 -18 -47 -1 -13 16 -78 578 -69 600 7 19 42 23 53 6z"/>
<path d="M634 766 c-18 -14 -19 -29 -19 -326 l0 -312 24 -19 c24 -19 51 -18
79 3 9 8 12 85 12 323 0 289 -1 313 -18 328 -23 21 -52 22 -78 3z m71 -40 c3
-11 4 -149 3 -305 -3 -252 -5 -285 -20 -294 -12 -8 -21 -7 -32 2 -14 12 -16
52 -16 312 0 269 2 299 17 307 23 13 42 4 48 -22z"/>
<path d="M887 763 c-11 -13 -25 -99 -51 -318 -31 -269 -34 -302 -20 -322 26
-41 103 -22 104 25 1 9 16 143 34 297 21 169 31 288 26 301 -14 37 -66 46 -93
17z m69 -28 c7 -18 -54 -561 -67 -593 -10 -26 -31 -29 -49 -7 -10 12 -6 70 20
303 19 158 38 293 43 300 13 17 46 15 53 -3z"/>
</g>
</svg>
