<svg width="14" height="14" viewBox="0 0 14 14" fill="none" xmlns="http://www.w3.org/2000/svg">
<g clip-path="url(#clip0_4900_2348)">
<path d="M6.57349 2.8438C4.26021 2.97779 2.07817 4.21646 0.339112 6.38208C-0.114794 6.9481 -0.114794 7.04927 0.341846 7.62075C2.07817 9.78911 4.26841 11.0251 6.59263 11.1536C9.22036 11.2958 11.7059 10.0543 13.661 7.61802C14.1149 7.052 14.1149 6.95083 13.6583 6.37935C12.3895 4.79614 10.8801 3.70786 9.21216 3.17466C8.69263 3.00786 8.06646 2.88755 7.57427 2.85747C7.03833 2.82739 6.92349 2.82466 6.57349 2.8438ZM7.57974 4.11802C8.3645 4.26568 9.11919 4.80161 9.52935 5.49888C10.0215 6.34107 10.0735 7.35825 9.6688 8.21958C9.51021 8.55591 9.35708 8.77466 9.09732 9.04263C7.63443 10.5493 5.14341 10.0899 4.29575 8.15669C3.9895 7.45943 3.98403 6.6063 4.28208 5.87896C4.56919 5.17075 5.19536 4.55278 5.90903 4.27114C6.45044 4.05786 6.99185 4.00864 7.57974 4.11802Z" fill="white"/>
<path d="M6.71318 5.44151C6.26748 5.53721 5.87373 5.81339 5.64951 6.19073C5.48271 6.4669 5.42803 6.67198 5.43076 7.00011C5.43076 7.31729 5.46084 7.44581 5.58662 7.71104C5.7042 7.9544 6.04326 8.29346 6.29209 8.41378C7.16982 8.83761 8.18975 8.40557 8.50693 7.47862C8.59717 7.21339 8.5999 6.79776 8.5124 6.52159C8.31279 5.88995 7.7331 5.44971 7.06865 5.4251C6.93467 5.41964 6.77334 5.42784 6.71318 5.44151Z" fill="white"/>
</g>
<defs>
<clipPath id="clip0_4900_2348">
<rect width="14" height="14" fill="white"/>
</clipPath>
</defs>
</svg>
