<svg width="20" height="19" viewBox="0 0 20 19" fill="none" xmlns="http://www.w3.org/2000/svg">
<path d="M10 0.302734C7.61381 0.3052 5.32606 1.2542 3.63876 2.94149C1.95147 4.62878 1.00247 6.91653 1 9.30272C1 11.7074 1.93553 13.9671 3.63493 15.6664C4.46879 16.505 5.46074 17.1698 6.55332 17.6223C7.64591 18.0748 8.81742 18.3061 10 18.3027C12.3862 18.3002 14.6739 17.3512 16.3612 15.6639C18.0485 13.9767 18.9975 11.6889 19 9.30272C18.9975 6.91653 18.0485 4.62878 16.3612 2.94149C14.6739 1.2542 12.3862 0.3052 10 0.302734ZM4.55981 15.6079C5.18185 14.7986 5.97861 14.1403 6.89063 13.6819C7.80266 13.2236 8.80642 12.9772 9.827 12.961C9.85894 12.9623 9.88955 12.9703 9.92148 12.9703H9.95209C9.98137 12.9703 10.008 12.9623 10.0373 12.961C11.072 12.9786 12.0889 13.2332 13.0098 13.7052C13.9307 14.1772 14.7312 14.854 15.3497 15.6837C13.8533 16.9466 11.9581 17.6387 10 17.6373C8.00087 17.6409 6.06817 16.9199 4.55981 15.6079ZM9.92548 12.289C9.89221 12.289 9.86027 12.2943 9.827 12.2956C9.05024 12.2693 8.31438 11.941 7.77585 11.3807C7.23733 10.8203 6.93862 10.0719 6.94322 9.29473C6.94461 8.90132 7.02366 8.51206 7.17582 8.14926C7.32798 7.78647 7.55027 7.45728 7.82994 7.18059C8.1096 6.90389 8.44114 6.68512 8.80554 6.53684C9.16993 6.38856 9.56002 6.31367 9.95342 6.31647C10.3468 6.31786 10.7361 6.39691 11.0989 6.54907C11.4617 6.70123 11.7909 6.92352 12.0676 7.20319C12.3443 7.48285 12.563 7.81439 12.7113 8.17878C12.8596 8.54318 12.9345 8.93327 12.9317 9.32667C12.9317 10.9396 11.6408 12.2504 10.0386 12.2969C10.0013 12.2956 9.96407 12.289 9.92548 12.289ZM15.8434 15.2366C14.8144 13.8787 13.3507 12.9148 11.6967 12.5059C12.2723 12.1905 12.7524 11.7261 13.0867 11.1614C13.4211 10.5966 13.5974 9.95235 13.5971 9.29606C13.5955 8.81532 13.4991 8.33962 13.3135 7.89617C13.1278 7.45273 12.8565 7.05027 12.5151 6.71182C12.1737 6.37337 11.7688 6.10559 11.3238 5.9238C10.8788 5.74201 10.4022 5.64979 9.92148 5.65242C9.44075 5.65399 8.96504 5.75036 8.52159 5.93603C8.07815 6.12169 7.67568 6.393 7.33723 6.73441C6.99879 7.07583 6.731 7.48064 6.54921 7.92569C6.36743 8.37074 6.27521 8.84727 6.27784 9.328C6.28028 9.97816 6.45716 10.6158 6.79001 11.1743C7.12287 11.7328 7.5995 12.1917 8.17019 12.5032C6.54413 12.9026 5.09986 13.8378 4.07009 15.1581C2.52555 13.6024 1.66121 11.4976 1.66672 9.30538C1.66918 7.09566 2.54808 4.97716 4.11059 3.41465C5.6731 1.85214 7.79161 0.973245 10.0013 0.97078C12.2111 0.973245 14.3296 1.85214 15.8921 3.41465C17.4546 4.97716 18.3335 7.09566 18.3359 9.30538C18.3354 10.41 18.1147 11.5035 17.6867 12.5219C17.2587 13.5403 16.6321 14.4632 15.8434 15.2366Z" fill="#2B3A4A" stroke="#2B3A4A" stroke-width="0.2"/>
</svg>
