<svg width="6" height="9" viewBox="0 0 6 9" fill="none" xmlns="http://www.w3.org/2000/svg">
<path d="M5.40234 8.96175C5.47969 8.93186 5.5377 8.8844 5.70293 8.72093C5.95605 8.46956 5.98945 8.40979 5.99121 8.21819C5.99121 8.11624 5.98242 8.05823 5.95781 8.00725C5.93496 7.95979 5.37246 7.38323 4.20879 6.2178L2.49316 4.50042L4.21055 2.78128C5.54648 1.44534 5.93672 1.04632 5.96309 0.984793C5.9877 0.932059 6 0.86702 6 0.791434C6 0.610379 5.94902 0.522488 5.70469 0.27991C5.53242 0.109402 5.48145 0.0707305 5.39707 0.0390899C5.26875 -0.0101288 5.1668 -0.0101288 5.03848 0.0373321C4.94004 0.0724883 4.84863 0.162137 2.87637 2.1344C0.596485 4.41253 0.726562 4.26839 0.726562 4.50042C0.726562 4.73245 0.596485 4.58831 2.87637 6.86643C4.85039 8.84046 4.94004 8.92835 5.03848 8.9635C5.16504 9.00921 5.27754 9.00921 5.40234 8.96175Z" fill="#2B3A4A"/>
</svg>
